<svg xmlns="http://www.w3.org/2000/svg" width="358.201" height="95.689" viewBox="128.34 348.121 358.201 95.689" xml:space="preserve"><g style="fill:#313335;fill-opacity:1"><path d="M165.519 440.792c3.841 3.842 10.152 3.842 14.062 0 3.841-3.841 3.841-10.151 0-14.062-3.841-3.842-10.152-3.91-14.062 0a9.893 9.893 0 0 0 0 14.062z" fill="#FDFEFF" style="fill:#313335;fill-opacity:1"/><g style="fill:#313335;fill-opacity:1" fill="#FDFEFF"><path d="M299.209 443.673v-5.145h-5.487v5.145h-3.361v-13.17h3.361v5.419h5.487v-5.419h3.361v13.17h-3.361zM320.816 431.807l-1.234 2.606c-1.372-.823-3.155-1.372-4.185-1.372-.892 0-1.44.343-1.44.96 0 2.264 6.996.961 6.996 5.763 0 2.606-2.332 4.047-5.281 4.047-2.195 0-4.459-.823-6.036-2.127l1.303-2.606c1.372 1.166 3.361 1.989 4.733 1.989 1.029 0 1.715-.411 1.715-1.166 0-2.332-6.997-.96-6.997-5.625 0-2.4 2.059-3.979 5.282-3.979 1.851 0 3.841.618 5.144 1.51zM341.463 437.02c0 3.841-3.018 6.791-7.134 6.791-4.047 0-7.134-2.881-7.134-6.791 0-3.842 3.019-6.653 7.134-6.653 4.116-.001 7.134 2.88 7.134 6.653zm-10.838.068c0 2.195 1.715 3.91 3.704 3.91 2.059 0 3.636-1.715 3.636-3.91s-1.646-3.91-3.636-3.91-3.704 1.646-3.704 3.91zM360.532 438.117c0 3.498-2.332 5.693-6.036 5.693s-6.104-2.195-6.104-5.693v-7.614h3.361v7.614c0 1.783 1.166 2.881 2.743 2.881 1.578 0 2.676-1.098 2.676-2.881v-7.614h3.36v7.614zM374.525 430.503c2.95 0 4.871 1.304 4.871 3.293 0 1.371-.893 2.538-2.264 2.881 1.646.343 2.743 1.646 2.743 3.361 0 2.264-1.989 3.635-5.076 3.635h-6.447v-13.17h6.173zm-2.88 5.282h2.744c.96 0 1.578-.549 1.578-1.372s-.618-1.304-1.578-1.304h-2.744v2.676zm0 5.281h2.744c1.234 0 1.989-.549 1.989-1.509 0-.892-.755-1.44-1.989-1.44h-2.744v2.949zM391.332 441.615c0 1.372-.961 2.264-2.264 2.264-1.304 0-2.264-.892-2.264-2.264 0-1.303.892-2.264 2.264-2.264 1.303.001 2.264.962 2.264 2.264zM410.538 432.561l-1.921 2.264c-.892-1.028-2.126-1.715-3.292-1.715-2.059 0-3.704 1.646-3.704 3.842 0 2.194 1.577 3.909 3.704 3.909 1.097 0 2.4-.617 3.292-1.509l1.989 2.058c-1.44 1.44-3.498 2.401-5.419 2.401-3.979 0-6.928-2.95-6.928-6.791 0-3.772 3.018-6.653 7.065-6.653 1.853-.001 3.91.891 5.214 2.194zM430.636 437.02c0 3.841-3.018 6.791-7.134 6.791-4.047 0-7.134-2.881-7.134-6.791 0-3.842 3.019-6.653 7.134-6.653 4.116-.001 7.134 2.88 7.134 6.653zm-10.838.068c0 2.195 1.715 3.91 3.704 3.91 2.059 0 3.636-1.715 3.636-3.91s-1.646-3.91-3.636-3.91-3.704 1.646-3.704 3.91zM449.294 443.673v-8.574l-3.155 7.271h-2.195l-3.155-7.271v8.574h-3.019v-13.17h3.705l3.566 7.819 3.567-7.819h3.635v13.17h-2.949z" style="fill:#313335;fill-opacity:1"/></g><path d="M211.683 383.447a39.24 39.24 0 0 1 4.87-18.932V349.63c0-.754-.617-1.372-1.372-1.372h-22.156c-.754 0-1.372.617-1.372 1.372v32.034c0 6.722-5.487 12.21-12.209 12.21H165.45c-6.722 0-12.209-5.488-12.209-12.21V349.63c0-.754-.618-1.372-1.372-1.372h-22.156c-.755 0-1.372.617-1.372 1.372v42.117c0 14.954 12.141 27.095 27.095 27.095h34.091c12.073 0 22.293-7.957 25.792-18.863-2.264-5.077-3.636-10.633-3.636-16.532zM233.77 384.064c0 2.881.412 5.556 1.303 7.957s2.058 4.459 3.567 6.174c1.509 1.715 3.361 3.087 5.488 4.047s4.458 1.44 6.928 1.44c2.47 0 4.802-.48 6.859-1.44 2.126-.96 3.979-2.264 5.488-4.047 1.578-1.715 2.813-3.773 3.635-6.174.892-2.401 1.304-5.076 1.304-7.957 0-2.813-.412-5.419-1.304-7.751-.892-2.333-2.058-4.321-3.635-5.968s-3.43-2.881-5.488-3.773a17.486 17.486 0 0 0-6.859-1.372c-2.469 0-4.801.48-6.928 1.372a16.33 16.33 0 0 0-5.488 3.773c-1.509 1.646-2.744 3.567-3.567 5.968-.891 2.333-1.303 4.939-1.303 7.751z" fill="#FDFEFF" style="fill:#313335;fill-opacity:1"/><path d="M484.003 368.219c-1.646-4.39-3.842-8.094-6.723-11.112-2.813-2.95-6.174-5.145-10.015-6.722-3.841-1.509-8.025-2.264-12.484-2.264h-34.435c-.754 0-1.372.617-1.372 1.372v22.156c0 .754.618 1.372 1.372 1.372h31.691c3.635 0 6.447.96 8.437 2.675 1.989 1.715 3.019 4.252 3.019 7.408 0 3.155-1.029 5.967-3.019 7.682s-4.802 2.95-8.437 2.95h-52.476a1.375 1.375 0 0 1-1.371-1.372v-42.871c0-.755-.618-1.372-1.372-1.372h-22.156c-.755 0-1.372.617-1.372 1.372v32.788c0 3.635-.96 6.448-2.675 8.437s-4.253 3.018-7.408 3.018-5.968-1.029-7.683-3.018-2.95-4.802-2.95-8.437v-32.788c0-.755-.617-1.372-1.371-1.372h-22.088c-.755 0-1.372.617-1.372 1.44v32.788c0 3.636-.96 6.448-2.675 8.437s-4.253 3.019-7.408 3.019c-.48 0-.892 0-1.304-.069a9.344 9.344 0 0 1-2.813-.617c-1.44-.48-2.675-1.303-3.566-2.333-1.715-1.989-2.949-4.801-2.949-8.437v-32.788c0-.754-.618-1.372-1.372-1.372h-37.795c13.102 6.311 22.156 19.687 22.156 35.258 0 4.596-.823 8.986-2.264 13.033a33.626 33.626 0 0 1-1.784 4.596v.068c-9.123 19.618-19.412 25.654-36.012 38.824 8.574-3.018 27.506-12.415 40.471-31.759.343.411.686.755 1.097 1.098a30.11 30.11 0 0 0 10.77 6.791c4.321 1.646 9.397 2.537 15.297 2.537H454.85a35.38 35.38 0 0 0 12.484-2.263c3.842-1.441 7.203-3.636 10.015-6.517 2.813-2.881 5.076-6.585 6.723-10.907 1.646-4.321 2.47-9.466 2.47-15.365-.07-5.761-.893-10.905-2.539-15.364z" fill="#FDFEFF" style="fill:#313335;fill-opacity:1"/></g></svg>